<svg id="clock" xmlns="http://www.w3.org/2000/svg" width="500" height="500" viewBox="0 0 500 500"><title>clock-face</title><rect x="247" y="456.6" width="6" height="43.42" fill="#fff"/><rect x="247" width="6" height="43.42" fill="#fff"/><rect x="475.3" y="228.3" width="6" height="43.42" transform="translate(228.3 728.3) rotate(-90)" fill="#fff"/><rect x="18.7" y="228.3" width="6" height="43.42" transform="translate(-228.3 271.7) rotate(-90)" fill="#fff"/><rect x="361.2" y="426" width="6" height="43.42" transform="translate(-175.1 242.1) rotate(-30)" fill="#fff"/><rect x="132.9" y="30.6" width="6" height="43.42" transform="translate(-7.9 74.9) rotate(-30)" fill="#fff"/><rect x="444.7" y="114.1" width="6" height="43.42" transform="translate(553.9 591.5) rotate(-120)" fill="#fff"/><rect x="49.3" y="342.4" width="6" height="43.42" transform="translate(-236.9 591.5) rotate(-120)" fill="#fff"/><rect x="444.7" y="342.4" width="6" height="43.42" transform="translate(-91.5 569.8) rotate(-60)" fill="#fff"/><rect x="49.3" y="114.1" width="6" height="43.42" transform="translate(-91.5 113.2) rotate(-60)" fill="#fff"/><rect x="361.2" y="30.6" width="6" height="43.42" transform="translate(653.4 279.7) rotate(-150)" fill="#fff"/><rect x="132.9" y="426" width="6" height="43.42" transform="translate(29.7 903.4) rotate(-150)" fill="#fff"/></svg>