<svg xmlns="http://www.w3.org/2000/svg" width="0.7in" height="0.7in" viewBox="0 0 50 50"><title>facebook</title><g id="facebook"><path d="M0,47.8V2.2c0-.1.1-.1.1-.2A2.8,2.8,0,0,1,2.8,0H47.9A2.8,2.8,0,0,1,50,2.9V47.3a2.5,2.5,0,0,1-.6,1.6A3.2,3.2,0,0,1,47.7,50H34.5V30.7h6.1c.3,0,.4-.2.5-.5.2-2,.5-4,.7-6,.1-.3.1-.7.2-1.1H35c-.4,0-.5-.1-.5-.5V19a12.8,12.8,0,0,1,.1-1.9,2.4,2.4,0,0,1,2.1-2.3l1.8-.2h3.4c.2,0,.3,0,.3-.3V8.1c0-.1-.1-.3-.2-.3a36.6,36.6,0,0,0-7.4-.1,8.6,8.6,0,0,0-7.8,8.7c-.1,2.1-.1,4.2-.1,6.2,0,.4-.1.5-.4.5H20.2v7.6h6.5V50H2.2l-.3-.2A3.3,3.3,0,0,1,.4,48.7Z" fill="#5b536b"/></g></svg>