<svg id="instagram" xmlns="http://www.w3.org/2000/svg" width="0.7in" height="0.7in" viewBox="0 0 50 50"><title>instagram</title><path d="M0,25V14A13.8,13.8,0,0,1,4.6,3.6a13.2,13.2,0,0,1,7-3.4L13.7,0H36.3a13.6,13.6,0,0,1,8.9,3.4,13.2,13.2,0,0,1,4.4,7.3,10.3,10.3,0,0,1,.4,3V36.3a13.2,13.2,0,0,1-3.4,8.9,12.6,12.6,0,0,1-6.3,4.1,10.7,10.7,0,0,1-3.9.7H13.7a13.2,13.2,0,0,1-8.9-3.4A13.6,13.6,0,0,1,.3,38.9,10.7,10.7,0,0,1,0,36.4V25ZM25,38.9A13.9,13.9,0,1,0,11.1,25,13.9,13.9,0,0,0,25,38.9ZM44.4,8.4a2.8,2.8,0,1,0-2.7,2.7A2.7,2.7,0,0,0,44.4,8.4Z" fill="#5b536b"/><path d="M25,16.7A8.3,8.3,0,1,0,33.3,25,8.3,8.3,0,0,0,25,16.7Z" fill="#5b536b"/><path d="M25,16.7A8.3,8.3,0,1,1,16.7,25,8.3,8.3,0,0,1,25,16.7Z" fill="#5b536b"/></svg>